<svg width="178" height="36" viewBox="0 0 178 36" fill="none" xmlns="http://www.w3.org/2000/svg">
<path d="M20.0401 0.43707C20.7844 0.254512 21.5173 0.144336 21.7656 0.244349C22.9704 0.438135 24.1372 1.17282 24.6665 2.3547C24.9842 2.88388 24.9832 5.00381 24.6139 5.5149C24.3792 5.97381 23.468 7.02685 23.0356 7.03643C22.2875 7.65506 20.8892 8.32586 20.2821 9.27562C19.4992 10.3404 19.1299 11.5489 18.6407 12.9607C18.3208 14.2502 17.921 14.4812 18.6933 15.0604C19.6728 15.5609 19.8843 17.4753 20.5461 16.9994C20.6598 16.8737 21.5257 17.0111 21.5941 16.8918C21.5731 16.8492 21.6572 16.8162 21.7846 16.8279C22.7336 16.7822 24.7338 16.5437 25.5229 15.9282C26.4488 14.7847 27.3569 13.1418 29.1235 13.4431C32.4126 13.9797 32.22 18.6732 28.9646 19.0682C27.965 19.1172 26.8718 18.2739 26.0522 17.7713C24.6223 17.1112 21.8319 18.1206 20.2284 18.1568C20.1853 19.0341 20.0337 20.0542 19.4761 20.6749C19.3298 20.8112 19.0878 21.334 19.1689 21.3926C19.2004 21.35 19.5929 21.7673 20.0474 22.3029C20.7881 23.1888 21.531 23.8127 22.2928 24.2099C22.8441 24.5453 23.7868 24.5751 24.3792 24.7561C25.2167 24.8732 26.3405 25.0905 27.037 25.7634C31.1952 30.1523 23.931 35.3675 21.0964 30.1023C20.906 29.6955 20.8639 29.3527 20.7997 27.7992C20.8302 25.0383 20.0116 23.8245 18.4807 21.9814C18.3008 21.8738 18.184 21.8951 17.7074 22.1421C17.2518 22.3881 17.0193 22.4424 15.5683 22.4424C15.2474 23.0994 15.0243 23.6754 14.5098 25.067C13.7533 27.3264 13.1494 28.0217 12.9747 30.049C12.9684 31.2607 13.6986 32.0785 13.8217 33.2092C13.3871 35.8258 11.9145 35.9706 10.0307 35.6092C9.90341 35.5879 9.79819 35.524 9.79819 35.4591C9.79819 35.3941 9.72454 35.3739 9.63931 35.4058C9.55409 35.4378 9.33208 35.3526 9.14163 35.2131C8.84387 35.031 8.5461 34.4795 8.53769 34.1952C8.10945 33.8939 8.19468 32.3564 8.54821 31.9241C8.88069 30.9434 10.763 30.2173 11.4711 29.6316C12.2056 28.7394 12.4255 27.401 12.9221 26.3533C13.222 25.2768 14.1247 23.2442 14.331 22.1752C14.2994 22.0889 14.1405 21.9718 13.9711 21.9292C13.6902 21.8632 13.0094 21.2914 12.9758 21.0188C12.9758 20.9549 12.9442 20.89 12.8905 20.89C12.8484 20.9006 12.6359 20.6334 12.4139 20.3012C12.0435 19.7443 12.0004 19.7124 11.6732 19.7763C10.6483 20.0872 9.028 20.4779 8.21046 21.3084C7.00151 22.139 6.60063 23.6733 5.26648 24.2866C4.87296 24.5464 2.44034 24.5421 2.06892 24.244C0.946249 23.5498 -0.0659426 22.3029 0.00455303 20.8368C-0.13223 18.2015 2.84121 16.4169 5.10865 17.3656C6.36389 18.0599 7.71594 19.015 9.27 19.0373C9.94023 19.0512 11.4501 19.0948 11.7689 18.6625C11.972 17.9129 11.9836 16.7502 12.5738 16.1124C12.9231 15.7376 12.9231 15.727 12.7432 15.3948C12.3592 14.7368 11.2797 13.622 10.7525 12.9203C10.1475 12.1867 9.76978 11.7214 9.00485 11.4743C8.41248 11.3146 7.5055 11.4041 6.89735 11.1741C5.3012 10.5224 4.62255 9.12655 5.13916 7.4453C6.40388 4.42352 10.9167 5.55536 10.4337 8.99878C10.2106 11.0357 11.6616 12.324 12.8169 13.7242C13.1031 14.0564 13.4313 14.4631 13.526 14.6132C13.6954 14.8603 13.7375 14.8709 13.8964 14.7421C14.4572 14.0979 16.4101 14.2555 17.1161 14.067C17.1476 14.0244 17.3275 13.5527 17.5285 13.0172C17.801 12.2239 18.1293 11.5201 18.3229 10.9814C18.3229 10.8334 18.5312 9.96132 18.5986 9.83462C18.8974 7.83713 18.2798 6.39439 17.5717 4.60666C17.1266 2.9318 18.3482 0.769274 20.039 0.4392L20.0401 0.43707Z" fill="#E28607"/>
<path d="M176.821 17.5527C175.381 14.3888 171.181 13.126 168.165 14.6739C166.943 15.2576 166.113 16.4439 165.291 17.5527L165.238 9.1048C165.353 9.14358 165.361 9.2096 165.374 9.32698C165.412 9.78914 165.391 9.10585 165.396 9.01048L162.879 9C163.361 9.01677 164.713 9.03458 165.062 9.07126C164.908 9.0786 164.763 9.08489 164.627 9.09013C163.979 9.11842 163.499 9.14358 162.921 9.16873L162.974 28.7306L162.869 9.74827V28.8354C165.225 28.9224 166.154 28.7778 164.177 28.7296H165.185C165.143 22.4898 165.239 27.5988 169.008 28.7296C171.078 29.4328 173.954 28.8407 175.557 27.2844C176.5 26.2888 176.806 25.5594 177.315 24.2788C177.59 23.5085 177.6 23.3398 177.6 21.7688C177.575 19.8174 177.517 19.0545 176.821 17.5506V17.5527ZM174.947 23.3523C173.955 27.2855 168.435 28.0348 166.291 24.6707C165.801 23.8962 165.674 23.3198 165.501 22.298C165.192 21.2521 165.76 19.5408 166.164 18.6175C167.213 17.1346 168.422 16.2176 170.45 16.3716C172.148 16.3957 172.802 16.7478 173.883 17.7843C175.228 19.0052 175.233 21.7332 174.947 23.3523Z" fill="white"/>
<path d="M53.7704 27.2331L53.7286 26.9899L48.4491 26.9543C49.3416 26.9532 52.6143 26.9302 53.5706 26.926C47.5786 26.8411 45.8732 26.8526 45.9151 26.8946C45.936 26.9155 46.389 26.9344 47.1005 26.9449L45.8837 26.9365V23.9057C45.9308 23.694 45.9454 22.6324 45.8837 22.5265V20.2932L52.991 20.2408C52.991 18.9329 52.9805 18.5431 52.97 18.5326C52.6436 18.4949 47.1706 18.4121 45.8837 18.3953V16.8118C45.891 17.1325 45.8994 17.1052 45.9046 16.6546C45.9255 15.8109 45.9255 14.4821 45.9046 13.7013C45.8994 13.2853 45.89 13.2863 45.8837 13.6248V11.8558L46.2279 11.8537C46.0208 11.8631 45.9025 11.8747 45.8952 11.8872C46.4717 12.0151 56.9343 11.8495 50.232 11.8264L53.7296 11.8034L53.6773 10.0637C44.5801 10.0113 43.516 10.0323 43.5055 10.1371C43.4857 14.1708 43.5265 23.9885 43.516 28.782H43.606C42.2103 28.9465 59.007 28.8774 52.0431 28.738L53.6773 28.7296C53.783 27.7487 53.7935 27.3588 53.7715 27.232L53.7704 27.2331Z" fill="white"/>
<path d="M141.778 14.2096L141.809 18.1323L137.863 18.1102C139.117 18.0956 139.127 18.0715 136.913 18.0683C135.518 18.0683 134.813 18.083 135.113 18.0945L133.63 18.0861C134.073 18.0379 132.475 18.0369 132.748 18.0809L132.332 18.0788L132.228 10.0637C130.679 10.0323 130.153 10.0532 130.068 10.0742C129.999 10.1035 129.961 10.4955 129.946 12.1681C129.935 11.1358 129.903 10.6684 129.9 12.647C129.902 14.087 129.924 14.3909 129.937 13.5609C129.934 14.6676 129.934 16.1149 129.938 18.0013C129.882 16.752 129.888 20.4295 129.941 18.9539L129.964 28.7705C129.859 27.865 129.876 28.5955 129.858 28.8763L132.016 28.8344L130.297 28.781C132.397 28.7181 131.878 28.9444 132.063 28.1993C132.018 28.5294 131.93 28.7411 132.228 28.7914C132.507 28.8753 132.431 27.0015 132.124 27.9677C132.261 27.2519 132.308 21.8202 132.332 20.1863L133.652 20.179C133.914 20.2324 135.474 20.2115 135.965 20.1968C136.385 20.1884 136.192 20.1748 135.559 20.1685L141.757 20.1339C141.757 26.5875 141.778 28.5389 141.809 28.6227C141.724 28.8543 143.758 28.7642 144.178 28.781V10.0124C140.949 10.2073 141.912 9.10585 141.778 14.2096Z" fill="white"/>
<path d="M95.689 13.9885C94.1698 14.1362 92.4874 14.7755 91.5301 16.1086C90.8929 16.8317 90.645 17.2635 90.6983 15.7921C90.7046 15.5343 90.6983 14.3584 90.6879 14.1258C89.1823 14.2002 88.656 14.2211 88.5504 14.2211C88.4217 14.2295 88.385 14.4779 88.3746 17.669C88.2992 6.01321 88.1957 30.9776 88.3714 27.8975V28.7841C88.8967 28.7841 89.3131 28.781 89.6385 28.7768L88.6341 28.8375C90.2736 28.8837 90.984 28.8281 90.6879 28.7013C90.7015 27.9488 90.7109 24.8363 90.7402 23.2412C90.7391 18.7118 91.1367 16.6231 96.2163 16.4995C96.1923 14.3207 96.4905 14.0513 95.6901 13.9895L95.689 13.9885Z" fill="white"/>
<path d="M68.9852 17.1304C68.0802 15.0092 66.4166 14.0576 63.9945 14.0618C62.2431 14.001 62.1552 14.1362 60.8986 14.7577C60.2029 15.1276 59.6002 15.7344 59.2874 16.3496C59.1053 16.6378 59.1284 16.9878 58.8668 17.0769C58.3656 16.7038 58.6492 14.9097 58.5717 14.1237C56.3819 14.1237 56.3599 14.1341 56.2553 14.3878C56.1925 14.5565 56.1496 17.2037 56.1496 21.5582C56.1496 25.355 56.1706 28.5389 56.202 28.6238C56.1162 28.8554 58.1501 28.7663 58.5707 28.782C58.5864 26.6011 58.6 24.9306 58.6136 23.6426C58.6084 24.9662 58.6293 27.2844 58.645 25.8287C58.6659 24.8164 58.6659 23.2025 58.645 22.2435C58.6429 22.0256 58.6398 21.9009 58.6366 21.86C58.6732 19.6288 58.7203 19.2913 58.8239 18.9748C59.3083 17.3578 60.6894 16.1861 62.4147 16.0331C64.2383 15.7051 66.1477 16.6713 66.8582 18.3429C66.9764 18.6521 67.0245 19.109 67.0622 21.1578C67.0277 20.638 67.0245 23.5588 67.0685 22.6135C67.0737 22.5108 67.0779 22.3934 67.08 22.2708C67.0957 23.2507 67.1406 27.6523 67.1522 28.7296L69.5209 28.782C69.3378 19.2096 69.9101 20.223 68.9842 17.1293L68.9852 17.1304Z" fill="white"/>
<path d="M85.2431 17.5527C83.6925 14.3354 79.3108 13.2884 76.1563 14.5261C72.5457 15.9985 71.3142 19.8583 72.0497 23.5106C72.7068 26.9868 75.7462 29.2714 79.3683 28.9727C81.283 28.913 81.509 28.7317 82.9487 27.9813C84.585 27.1346 85.5528 25.5479 85.897 23.8365C84.4228 23.8994 83.8547 23.9203 83.6863 23.9203C83.4017 23.9203 83.3494 23.9832 83.1391 24.5638C82.753 25.6695 81.3406 26.9071 80.2116 26.9889C79.5138 27.0455 78.9069 27.3337 78.0009 27.0633C75.5673 26.6409 74.3117 24.7116 74.1579 22.4018C74.1579 22.1272 74.1998 22.0748 74.4948 22.0015C74.5932 21.9302 78.5062 21.925 79.722 21.926L75.3685 21.97C84.0734 21.9669 86.1021 22.0905 85.8332 21.8401C86.3229 20.7627 85.7579 18.6154 85.2452 17.5517L85.2431 17.5527ZM80.6751 21.9176C81.4808 21.8998 81.5247 21.8516 81.5257 21.7258C81.5257 21.8013 81.5561 21.8694 81.6011 21.9071C81.2997 21.9103 80.9901 21.9145 80.6751 21.9176ZM81.781 21.905C81.8197 21.8736 81.7789 21.8296 81.781 21.7929C81.7967 21.882 81.9788 21.8652 82.346 21.8988C82.1619 21.9009 81.9746 21.9029 81.7821 21.905H81.781ZM82.1158 21.6001C82.1263 21.5823 82.1368 21.5644 82.1504 21.5477C82.1399 21.5655 82.1305 21.5844 82.1158 21.6001ZM83.5796 20.7795C76.556 20.8109 74.9133 20.8319 75.3873 20.8529C75.6499 20.8623 75.8487 20.877 75.99 20.8979C75.7054 20.8612 74.069 20.9126 74.2082 20.7156C74.1663 19.9568 74.4812 19.1593 74.7867 18.3953C75.6028 16.6923 77.6734 15.8508 79.473 15.9377C81.4305 16.1631 82.7666 17.3672 83.5712 19.3154C83.2992 18.7967 83.5942 20.5741 83.5796 20.7784V20.7795Z" fill="white"/>
<path d="M109.493 15.9702L109.557 17.6575C109.037 17.0077 108.331 15.7963 107.798 15.3268C104.779 12.9562 99.7276 13.9727 98.0264 17.5097C95.6838 22.2289 97.9489 29.3773 104.06 28.9727C108.857 29.1582 109.647 23.301 109.499 27.2048C109.356 29.416 109.783 31.8956 107.724 33.1804C106.129 34.3081 103.966 34.1666 102.27 33.4016C101.211 32.9363 100.683 31.8222 100.217 30.7973C98.6437 30.8507 98.2147 30.6474 97.9531 31.0289C98.2136 31.9061 98.6635 33.0264 99.5644 33.8868C100.938 35.4525 102.603 36.0457 104.85 35.9964C107.267 36.052 108.664 35.4651 110.231 33.9822C110.887 33.2863 111.37 32.145 111.631 31.2092C111.841 30.4389 111.853 30.1968 111.853 22.2771V14.1258C109.023 14.3029 109.479 13.4938 109.493 15.9713V15.9702ZM109.104 23.3523C108.218 26.6409 103.942 27.9101 101.386 25.704C99.4064 24.0702 99.3604 20.5783 100.48 18.4487C102.269 16.2731 102.384 16.3454 106.008 16.4031C106.53 16.6892 107.494 17.2268 107.84 17.5527C109.247 18.8627 109.64 21.533 109.104 23.3523Z" fill="white"/>
<path d="M126.573 14.1782C125.35 14.3207 125.323 13.9581 124.899 15.0428C124.066 17.056 123.239 19.5439 122.456 21.4544C122.225 22.1691 121.213 24.5481 121.087 25.2293C120.995 25.6412 120.962 25.7418 120.686 25.4399C119.489 23.0432 118.276 19.6466 117.222 17.1304C117.002 16.6032 116.744 16.0237 116.538 15.5489C116.272 15.0731 116.319 14.5167 115.959 14.2306C115.834 14.1163 113.492 14.0744 113.379 14.2306C114.034 16.1327 115.022 17.9887 115.809 19.9621V19.9642C116.523 21.7269 117.481 23.8627 118.212 25.6726C118.643 26.7615 119.18 27.8252 119.434 28.5724C119.434 28.6353 119.307 29.0471 119.16 29.5009C118.459 31.1274 117.874 32.5412 117.191 34.1624C116.804 35.5615 115.712 35.8948 117.854 35.8497C118.581 35.8497 119.023 35.8078 119.139 35.7229C119.656 35.026 119.777 34.1519 120.308 32.9499C121.105 30.9199 122.728 26.9019 123.487 25.0406C124.586 22.4007 125.604 19.7346 126.805 16.7625C127.331 15.4546 127.731 14.3259 127.699 14.263C127.658 14.1572 127.373 14.1362 126.573 14.1792V14.1782Z" fill="white"/>
<path d="M158.046 14.2934C157.878 14.3354 157.867 14.6414 157.867 18.8176C157.66 23.2989 158.436 23.6573 156.604 26.01C154.853 27.5621 152.092 27.5653 150.412 25.8832C149.498 24.5439 149.56 24.7692 149.432 22.298C149.327 20.8832 149.369 15.4253 149.338 14.262C149.361 14.0493 147.266 14.1488 147.19 14.2515C147.034 14.3249 147 14.437 147.002 16.6326C146.989 15.4536 146.96 15.0889 146.958 17.2886C146.958 18.7652 146.979 19.3867 146.989 18.6594C146.998 18.3838 147.003 18.04 147.005 17.6774C147.179 22.3819 146.47 24.7378 148.38 27.2959C150.612 29.7755 155.511 29.7 157.298 26.7164C157.87 25.8434 158.018 25.4326 157.888 27.2959L157.814 28.6562C158.678 28.8239 159.432 28.7589 160.236 28.7306C160.188 22.5464 160.199 19.2222 160.184 14.1247C158.678 14.2201 158.151 14.262 158.046 14.2934Z" fill="white"/>
</svg>
