<svg width="149" height="16" viewBox="0 0 149 16" fill="none" xmlns="http://www.w3.org/2000/svg">
<path fill-rule="evenodd" clip-rule="evenodd" d="M20.749 0.02948V15.6992H24.0631V10.1444H26.4822L29.4513 15.6992H33.1097L29.784 9.61165C29.8318 9.59091 29.8791 9.56957 29.9258 9.54763C30.7779 9.14976 31.4285 8.57847 31.8775 7.83375C32.3265 7.08393 32.551 6.18873 32.551 5.14816C32.551 4.11269 32.3291 3.2124 31.8851 2.44727C31.4463 1.67705 30.806 1.0828 29.9641 0.664533C29.1273 0.241164 28.117 0.02948 26.9332 0.02948H20.749ZM24.0631 7.48179H26.3133C26.946 7.48179 27.4715 7.39508 27.8899 7.22165C28.3083 7.04822 28.6196 6.78808 28.8237 6.44122C29.0329 6.09436 29.1375 5.66334 29.1375 5.14816C29.1375 4.62788 29.0329 4.18921 28.8237 3.83215C28.6196 3.47509 28.3058 3.20475 27.8823 3.02112C27.4639 2.83239 26.9358 2.73802 26.298 2.73802H24.0631V7.48179Z" fill="#202020"/>
<path d="M91.9373 15.6992V0.02948H95.2513V6.49478H101.979V0.02948H105.285V15.6992H101.979V9.22627H95.2513V15.6992H91.9373Z" fill="#202020"/>
<path fill-rule="evenodd" clip-rule="evenodd" d="M109.322 15.1713C110.189 15.6763 111.217 15.9288 112.406 15.9288C113.595 15.9288 114.62 15.6763 115.483 15.1713C116.35 14.6612 117.019 13.9522 117.488 13.0442C117.957 12.1312 118.192 11.0728 118.192 9.86898C118.192 8.65498 117.957 7.59401 117.488 6.68606C117.019 5.77301 116.35 5.064 115.483 4.55902C114.62 4.04893 113.595 3.79389 112.406 3.79389C111.217 3.79389 110.189 4.04893 109.322 4.55902C108.459 5.064 107.793 5.77301 107.324 6.68606C106.855 7.59401 106.62 8.65498 106.62 9.86898C106.62 11.0728 106.855 12.1312 107.324 13.0442C107.793 13.9522 108.459 14.6612 109.322 15.1713ZM113.776 12.9448C113.414 13.2508 112.962 13.4039 112.421 13.4039C111.875 13.4039 111.416 13.2508 111.044 12.9448C110.676 12.6336 110.398 12.2103 110.209 11.6747C110.026 11.1391 109.934 10.5295 109.934 9.84602C109.934 9.16251 110.026 8.55296 110.209 8.01738C110.398 7.48179 110.676 7.05842 111.044 6.74727C111.416 6.43612 111.875 6.28054 112.421 6.28054C112.962 6.28054 113.414 6.43612 113.776 6.74727C114.138 7.05842 114.411 7.48179 114.595 8.01738C114.784 8.55296 114.878 9.16251 114.878 9.84602C114.878 10.5295 114.784 11.1391 114.595 11.6747C114.411 12.2103 114.138 12.6336 113.776 12.9448Z" fill="#202020"/>
<path d="M119.45 15.6992V3.94692H122.558V6.0204H122.695C122.94 5.33179 123.348 4.78855 123.92 4.39069C124.491 3.99282 125.175 3.79389 125.971 3.79389C126.777 3.79389 127.464 3.99537 128.03 4.39834C128.596 4.7962 128.974 5.33689 129.163 6.0204H129.285C129.525 5.34709 129.959 4.80896 130.586 4.40599C131.219 3.99792 131.966 3.79389 132.829 3.79389C133.926 3.79389 134.816 4.1433 135.5 4.84211C136.189 5.53582 136.533 6.52028 136.533 7.79549V15.6992H133.28V8.4382C133.28 7.78529 133.107 7.29561 132.76 6.96916C132.413 6.6427 131.979 6.47948 131.459 6.47948C130.867 6.47948 130.405 6.66821 130.073 7.04567C129.742 7.41803 129.576 7.91026 129.576 8.52236V15.6992H126.415V8.36933C126.415 7.79294 126.249 7.33387 125.918 6.99211C125.591 6.65036 125.16 6.47948 124.624 6.47948C124.262 6.47948 123.935 6.57129 123.644 6.75492C123.359 6.93345 123.132 7.18594 122.963 7.5124C122.795 7.83375 122.711 8.21121 122.711 8.64478V15.6992H119.45Z" fill="#202020"/>
<path fill-rule="evenodd" clip-rule="evenodd" d="M143.604 15.9288C142.395 15.9288 141.354 15.6839 140.481 15.1942C139.614 14.6995 138.946 14.0006 138.476 13.0978C138.007 12.1899 137.772 11.1161 137.772 9.87663C137.772 8.66773 138.007 7.60676 138.476 6.69371C138.946 5.78066 139.606 5.0691 140.458 4.55902C141.316 4.04893 142.321 3.79389 143.474 3.79389C144.25 3.79389 144.972 3.91886 145.64 4.1688C146.314 4.41364 146.9 4.78345 147.4 5.27823C147.906 5.77301 148.298 6.39531 148.579 7.14514C148.86 7.88986 149 8.7621 149 9.76186V10.6571H140.994V10.6647C140.994 11.2462 141.101 11.7486 141.316 12.172C141.535 12.5954 141.844 12.9218 142.242 13.1514C142.64 13.3809 143.112 13.4957 143.658 13.4957C144.02 13.4957 144.352 13.4447 144.653 13.3426C144.954 13.2406 145.211 13.0876 145.426 12.8836C145.64 12.6795 145.803 12.4296 145.916 12.1337L148.931 12.3327C148.778 13.057 148.464 13.6895 147.99 14.2302C147.52 14.7658 146.913 15.184 146.168 15.485C145.428 15.7808 144.574 15.9288 143.604 15.9288ZM141.323 7.48179C141.126 7.83 141.017 8.21512 140.997 8.63713H145.931C145.931 8.16785 145.829 7.75213 145.625 7.38998C145.421 7.02782 145.137 6.74472 144.775 6.54069C144.418 6.33155 144.002 6.22699 143.528 6.22699C143.033 6.22699 142.594 6.34176 142.211 6.57129C141.834 6.79573 141.538 7.09923 141.323 7.48179Z" fill="#202020"/>
<path d="M69.3993 3.94692L72.5985 15.6992H76.0427L78.0633 8.30812H78.2087L80.2292 15.6992H83.6811L86.8727 3.94692H83.5816L81.7906 11.7971H81.6911L79.7624 3.94692H76.5249L74.6267 11.843H74.5196L72.698 3.94692H69.3993Z" fill="#202020"/>
<path fill-rule="evenodd" clip-rule="evenodd" d="M63.7022 15.9288C62.4929 15.9288 61.452 15.6839 60.5795 15.1942C59.712 14.6995 59.0436 14.0006 58.5742 13.0978C58.1048 12.1899 57.87 11.1161 57.87 9.87663C57.87 8.66773 58.1048 7.60676 58.5742 6.69371C59.0436 5.78066 59.7044 5.0691 60.5565 4.55902C61.4137 4.04893 62.4189 3.79389 63.572 3.79389C64.3476 3.79389 65.0696 3.91886 65.738 4.1688C66.4116 4.41364 66.9984 4.78345 67.4984 5.27823C68.0035 5.77301 68.3964 6.39531 68.6771 7.14514C68.9577 7.88986 69.098 8.7621 69.098 9.76186V10.6571H61.0923V10.6647C61.0923 11.2462 61.1994 11.7486 61.4137 12.172C61.6331 12.5954 61.9418 12.9218 62.3398 13.1514C62.7378 13.3809 63.2098 13.4957 63.7557 13.4957C64.118 13.4957 64.4497 13.4447 64.7507 13.3426C65.0518 13.2406 65.3094 13.0876 65.5237 12.8836C65.738 12.6795 65.9013 12.4296 66.0136 12.1337L69.0291 12.3327C68.8761 13.057 68.5623 13.6895 68.0877 14.2302C67.6183 14.7658 67.0111 15.184 66.2662 15.485C65.5263 15.7808 64.6716 15.9288 63.7022 15.9288ZM61.0953 8.63713H66.0289C66.0289 8.16785 65.9268 7.75213 65.7227 7.38998C65.5186 7.02782 65.2355 6.74472 64.8732 6.54069C64.516 6.33155 64.1002 6.22699 63.6256 6.22699C63.1307 6.22699 62.6919 6.34176 62.3092 6.57129C61.9316 6.79573 61.6357 7.09923 61.4214 7.48179C61.2237 7.83 61.115 8.21512 61.0953 8.63713Z" fill="#202020"/>
<path d="M49.0598 15.6992V8.90492C49.0649 8.39994 49.1593 7.96892 49.343 7.61186C49.5318 7.2497 49.792 6.97426 50.1237 6.78553C50.4604 6.5968 50.8482 6.50243 51.287 6.50243C51.9402 6.50243 52.4529 6.70646 52.8254 7.11453C53.1979 7.5175 53.3816 8.07859 53.3765 8.7978V15.6992H56.637V8.21631C56.637 7.30326 56.4686 6.51773 56.1318 5.85973C55.7951 5.19662 55.3231 4.68654 54.7159 4.32948C54.1087 3.97242 53.3969 3.79389 52.5805 3.79389C51.708 3.79389 50.9656 3.99537 50.3533 4.39834C49.741 4.7962 49.3047 5.33689 49.0445 6.0204H48.9067V3.94692H45.7993V15.6992H49.0598Z" fill="#202020"/>
<path fill-rule="evenodd" clip-rule="evenodd" d="M39.1379 15.9288C37.9286 15.9288 36.8877 15.6839 36.0152 15.1942C35.1477 14.6995 34.4793 14.0006 34.0099 13.0978C33.5405 12.1899 33.3058 11.1161 33.3058 9.87663C33.3058 8.66773 33.5405 7.60676 34.0099 6.69371C34.4793 5.78066 35.1401 5.0691 35.9922 4.55902C36.8494 4.04893 37.8546 3.79389 39.0078 3.79389C39.7833 3.79389 40.5053 3.91886 41.1737 4.1688C41.8473 4.41364 42.4341 4.78345 42.9341 5.27823C43.4392 5.77301 43.8321 6.39531 44.1128 7.14514C44.3934 7.88986 44.5337 8.7621 44.5337 9.76186V10.6571H36.528V10.6647C36.528 11.2462 36.6351 11.7486 36.8494 12.172C37.0688 12.5954 37.3775 12.9218 37.7755 13.1514C38.1735 13.3809 38.6455 13.4957 39.1914 13.4957C39.5537 13.4957 39.8854 13.4447 40.1864 13.3426C40.4875 13.2406 40.7451 13.0876 40.9594 12.8836C41.1738 12.6795 41.337 12.4296 41.4493 12.1337L44.4648 12.3327C44.3118 13.057 43.998 13.6895 43.5234 14.2302C43.054 14.7658 42.4468 15.184 41.7019 15.485C40.962 15.7808 40.1073 15.9288 39.1379 15.9288ZM36.531 8.63713H41.4646C41.4646 8.16785 41.3625 7.75213 41.1584 7.38998C40.9543 7.02782 40.6712 6.74472 40.3089 6.54069C39.9517 6.33155 39.5359 6.22699 39.0613 6.22699C38.5664 6.22699 38.1276 6.34176 37.7449 6.57129C37.3673 6.79573 37.0714 7.09923 36.8571 7.48179C36.6594 7.83 36.5507 8.21512 36.531 8.63713Z" fill="#202020"/>
<path fill-rule="evenodd" clip-rule="evenodd" d="M0 7.95791C0 3.56288 3.56402 0 7.96046 0H15.9209V7.95791C15.9209 12.3529 12.3569 15.9158 7.96046 15.9158C6.13828 15.9158 4.45909 15.3038 3.11739 14.2741L1.83557 15.5555C1.42822 15.9627 0.767769 15.9627 0.360415 15.5555C-0.0469387 15.1483 -0.0469387 14.488 0.360415 14.0808L1.64223 12.7994C0.612239 11.4581 0 9.7795 0 7.95791ZM10.0892 3.59091C10.3386 3.87525 10.3227 4.30474 10.053 4.56993L7.79172 6.79344L11.2969 7.1381C11.5847 7.1664 11.827 7.36558 11.9104 7.64245C11.9938 7.91931 11.9018 8.21911 11.6774 8.40159L6.81877 12.3531C6.52361 12.5932 6.09197 12.5595 5.8376 12.2766C5.58322 11.9937 5.59558 11.5611 5.86569 11.2932L8.25744 8.92088L4.50896 8.66978C4.21368 8.64999 3.96124 8.45009 3.8744 8.16727C3.78756 7.88444 3.88433 7.57738 4.11765 7.39539L9.11353 3.49876C9.41178 3.26614 9.83979 3.30656 10.0892 3.59091Z" fill="#00D862"/>
</svg>
